<svg xmlns="http://www.w3.org/2000/svg" xmlns:xlink="http://www.w3.org/1999/xlink" width="1080" zoomAndPan="magnify" viewBox="0 0 810 809.999993" height="1080" preserveAspectRatio="xMidYMid meet" version="1.0"><defs><clipPath id="id1"><path d="M 228 87.949219 L 257 87.949219 L 257 117 L 228 117 Z M 228 87.949219 " clip-rule="nonzero"/></clipPath><clipPath id="id2"><path d="M 110 617 L 179 617 L 179 721.699219 L 110 721.699219 Z M 110 617 " clip-rule="nonzero"/></clipPath></defs><path fill="#120078" d="M 308.496094 252.46875 C 293.09375 250.476562 279.066406 240.6875 271.890625 226.925781 L 287.289062 218.90625 C 291.816406 227.585938 301.015625 234.003906 310.726562 235.261719 Z M 308.496094 252.46875 " fill-opacity="1" fill-rule="nonzero"/><path fill="#120078" d="M 381.929688 374.730469 C 380.183594 374.730469 378.4375 374.65625 376.695312 374.503906 L 377.941406 360.214844 C 388.058594 361.09375 398.371094 358.609375 406.976562 353.21875 L 414.601562 365.371094 C 404.847656 371.480469 393.414062 374.730469 381.929688 374.730469 Z M 381.929688 374.730469 " fill-opacity="1" fill-rule="nonzero"/><path fill="#120078" d="M 673.3125 269.898438 C 672.5 269.898438 671.683594 269.808594 670.871094 269.628906 L 673.988281 255.628906 C 672.660156 255.332031 671.53125 255.992188 671.316406 256.308594 C 671.355469 256.25 671.402344 256.109375 671.40625 256.042969 C 671.207031 254.914062 670.058594 253.21875 668.839844 251.425781 C 668.210938 250.5 667.582031 249.570312 667.007812 248.625 C 663.246094 242.4375 661.441406 235.054688 661.929688 227.832031 C 662.523438 219.136719 667.746094 209.1875 677.828125 207.882812 L 679.671875 222.105469 C 678.289062 222.285156 676.496094 225.25 676.253906 228.800781 C 675.964844 233.097656 677.035156 237.492188 679.277344 241.175781 C 679.726562 241.917969 680.222656 242.644531 680.71875 243.375 C 682.558594 246.082031 684.847656 249.453125 685.578125 253.808594 C 686.347656 258.386719 684.660156 263.414062 681.285156 266.613281 C 679.023438 268.757812 676.210938 269.898438 673.3125 269.898438 Z M 673.3125 269.898438 " fill-opacity="1" fill-rule="nonzero"/><path fill="#120078" d="M 164.710938 489.605469 L 150.414062 488.300781 C 151.863281 472.460938 143.960938 455.859375 130.75 446.984375 L 138.765625 435.082031 C 156.464844 446.976562 166.648438 468.378906 164.710938 489.605469 Z M 164.710938 489.605469 " fill-opacity="1" fill-rule="nonzero"/><path fill="#120078" d="M 383.960938 634.574219 C 377.578125 633.320312 371.722656 629.257812 367.890625 623.425781 C 364.058594 617.597656 362.652344 610.613281 364.039062 604.265625 C 364.613281 601.632812 365.546875 599.3125 366.453125 597.070312 C 367.105469 595.453125 367.722656 593.921875 368.125 592.449219 C 368.808594 589.925781 368.601562 587.53125 367.621094 586.625 C 366.984375 586.035156 365.617188 585.566406 364.171875 585.074219 C 363.042969 584.6875 361.765625 584.253906 360.484375 583.644531 C 354.027344 580.578125 349.636719 573.984375 349.296875 566.847656 C 348.957031 559.707031 352.707031 552.730469 358.847656 549.066406 L 364.628906 558.742188 C 362.09375 560.253906 360.421875 563.367188 360.5625 566.3125 C 360.703125 569.257812 362.660156 572.199219 365.328125 573.46875 C 366.027344 573.800781 366.898438 574.097656 367.820312 574.410156 C 370.082031 575.183594 372.894531 576.144531 375.28125 578.355469 C 379.460938 582.222656 380.855469 588.59375 379.007812 595.398438 C 378.433594 597.515625 377.660156 599.429688 376.914062 601.28125 C 376.152344 603.175781 375.429688 604.960938 375.058594 606.664062 C 374.316406 610.074219 375.140625 613.925781 377.316406 617.242188 C 379.496094 620.554688 382.710938 622.84375 386.132812 623.515625 Z M 383.960938 634.574219 " fill-opacity="1" fill-rule="nonzero"/><path fill="#120078" d="M 114.300781 117.402344 L 106.738281 105.210938 C 112.21875 101.816406 116.132812 95.738281 116.957031 89.347656 L 131.195312 91.179688 C 129.8125 101.902344 123.5 111.707031 114.300781 117.402344 Z M 114.300781 117.402344 " fill-opacity="1" fill-rule="nonzero"/><path fill="#120078" d="M 517.425781 153.199219 C 517.375 150 515.730469 146.773438 512.917969 144.34375 C 510.105469 141.917969 506.675781 140.761719 503.492188 141.179688 C 502.570312 141.300781 501.613281 141.5 500.652344 141.691406 C 496.335938 142.566406 490.421875 143.765625 485.558594 139.605469 C 480.742188 135.492188 481.03125 129.652344 481.238281 125.386719 C 481.34375 123.261719 481.449219 121.066406 480.917969 119.933594 L 491.378906 115.007812 C 493.144531 118.75 492.949219 122.746094 492.792969 125.953125 C 492.71875 127.503906 492.574219 130.390625 493.078125 130.820312 C 493.648438 131.308594 496.714844 130.695312 498.359375 130.363281 C 499.589844 130.113281 500.8125 129.871094 501.992188 129.71875 C 508.433594 128.878906 515.175781 131.019531 520.480469 135.597656 C 525.785156 140.171875 528.890625 146.519531 528.996094 153.011719 Z M 517.425781 153.199219 " fill-opacity="1" fill-rule="nonzero"/><path fill="#fecd1a" d="M 636.351562 643.40625 C 627.117188 643.40625 627.101562 657.75 636.351562 657.75 C 645.589844 657.75 645.605469 643.40625 636.351562 643.40625 Z M 636.351562 643.40625 " fill-opacity="1" fill-rule="nonzero"/><path fill="#fecd1a" d="M 243.65625 592.769531 C 227.820312 592.769531 227.792969 617.355469 243.65625 617.355469 C 259.488281 617.355469 259.515625 592.769531 243.65625 592.769531 Z M 243.65625 592.769531 " fill-opacity="1" fill-rule="nonzero"/><path fill="#fecd1a" d="M 306.488281 424.839844 C 290.652344 424.839844 290.625 449.429688 306.488281 449.429688 C 322.320312 449.429688 322.347656 424.839844 306.488281 424.839844 Z M 306.488281 424.839844 " fill-opacity="1" fill-rule="nonzero"/><path fill="#fecd1a" d="M 117.992188 300.921875 C 98.199219 300.921875 98.164062 331.65625 117.992188 331.65625 C 137.785156 331.65625 137.816406 300.921875 117.992188 300.921875 Z M 117.992188 300.921875 " fill-opacity="1" fill-rule="nonzero"/><path fill="#fecd1a" d="M 451 210.851562 C 436.484375 210.851562 436.460938 233.390625 451 233.390625 C 465.515625 233.390625 465.539062 210.851562 451 210.851562 Z M 451 210.851562 " fill-opacity="1" fill-rule="nonzero"/><path fill="#fecd1a" d="M 746.308594 357.289062 C 734.433594 357.289062 734.414062 375.730469 746.308594 375.730469 C 758.183594 375.730469 758.203125 357.289062 746.308594 357.289062 Z M 746.308594 357.289062 " fill-opacity="1" fill-rule="nonzero"/><path fill="#fecd1a" d="M 546.816406 456.164062 C 534.941406 456.164062 534.921875 474.605469 546.816406 474.605469 C 558.695312 474.605469 558.714844 456.164062 546.816406 456.164062 Z M 546.816406 456.164062 " fill-opacity="1" fill-rule="nonzero"/><g clip-path="url(#id1)"><path fill="#fecd1a" d="M 256.507812 99.304688 C 255.875 97.046875 254.734375 95.089844 253.082031 93.425781 L 251.511719 91.859375 C 250.300781 90.558594 248.871094 89.640625 247.21875 89.105469 C 245.632812 88.269531 243.917969 87.886719 242.085938 87.957031 C 240.25 87.886719 238.535156 88.269531 236.949219 89.105469 C 235.296875 89.640625 233.867188 90.558594 232.660156 91.859375 C 231.964844 92.757812 231.269531 93.65625 230.574219 94.554688 C 229.367188 96.632812 228.761719 98.871094 228.753906 101.277344 L 229.230469 104.816406 C 229.863281 107.074219 231.007812 109.03125 232.660156 110.691406 C 233.183594 111.214844 233.707031 111.738281 234.230469 112.261719 C 235.4375 113.5625 236.867188 114.480469 238.519531 115.015625 C 240.109375 115.851562 241.820312 116.234375 243.65625 116.164062 C 245.488281 116.234375 247.203125 115.851562 248.789062 115.015625 C 250.441406 114.480469 251.875 113.5625 253.082031 112.261719 C 253.777344 111.363281 254.46875 110.464844 255.164062 109.566406 C 256.371094 107.488281 256.976562 105.25 256.984375 102.84375 Z M 256.507812 99.304688 " fill-opacity="1" fill-rule="nonzero"/></g><path fill="#fecd1a" d="M 308.058594 113.546875 C 293.542969 113.546875 293.519531 136.085938 308.058594 136.085938 C 322.574219 136.085938 322.597656 113.546875 308.058594 113.546875 Z M 308.058594 113.546875 " fill-opacity="1" fill-rule="nonzero"/><path fill="#fd3a69" d="M 523.417969 367.015625 L 523.003906 350.628906 C 528.308594 350.496094 532.460938 342.53125 534.074219 335.191406 C 534.417969 333.613281 534.734375 332.003906 535.050781 330.382812 C 536.945312 320.738281 539.089844 309.804688 547.832031 302.246094 L 558.566406 314.640625 C 554.101562 318.503906 552.667969 325.804688 551.152344 333.53125 C 550.8125 335.277344 550.472656 337.011719 550.097656 338.707031 C 547.144531 352.140625 538.585938 366.628906 523.417969 367.015625 Z M 523.417969 367.015625 " fill-opacity="1" fill-rule="nonzero"/><path fill="#fd3a69" d="M 658.167969 148.921875 C 642.15625 148.921875 626.554688 141.042969 617.238281 127.875 L 630.632812 118.410156 C 637.542969 128.175781 650.179688 133.765625 662.046875 132.292969 L 664.046875 148.566406 C 662.089844 148.804688 660.125 148.921875 658.167969 148.921875 Z M 658.167969 148.921875 " fill-opacity="1" fill-rule="nonzero"/><path fill="#fd3a69" d="M 656.140625 487.285156 L 641.042969 480.871094 C 644.785156 472.078125 650.558594 464.09375 657.734375 457.777344 L 668.578125 470.078125 C 663.230469 474.785156 658.929688 480.738281 656.140625 487.285156 Z M 656.140625 487.285156 " fill-opacity="1" fill-rule="nonzero"/><path fill="#fd3a69" d="M 539.730469 605.460938 C 530.972656 600.675781 521.953125 596.082031 512.917969 591.804688 L 525.21875 565.882812 C 534.746094 570.394531 544.261719 575.246094 553.503906 580.292969 Z M 539.730469 605.460938 " fill-opacity="1" fill-rule="nonzero"/><path fill="#fd3a69" d="M 32.878906 412.332031 C 26.757812 406.234375 19.933594 400.824219 12.605469 396.246094 L 22.386719 380.609375 C 30.890625 385.917969 38.804688 392.199219 45.910156 399.277344 Z M 32.878906 412.332031 " fill-opacity="1" fill-rule="nonzero"/><path fill="#fd3a69" d="M 207.316406 359.753906 L 192.621094 348.601562 C 199.730469 339.25 200.179688 324.820312 193.667969 315.042969 L 209.035156 304.828125 C 219.867188 321.097656 219.144531 344.195312 207.316406 359.753906 Z M 207.316406 359.753906 " fill-opacity="1" fill-rule="nonzero"/><g clip-path="url(#id2)"><path fill="#fd3a69" d="M 119.398438 721.597656 L 110.972656 712.636719 C 114.367188 709.449219 114.679688 703.683594 115.046875 697.003906 C 115.46875 689.230469 115.949219 680.421875 122.066406 673.769531 C 126.4375 669.015625 132.339844 666.984375 137.542969 665.191406 C 142.289062 663.554688 146.386719 662.140625 148.277344 659.25 C 150.308594 656.144531 149.90625 651.128906 149.480469 645.816406 C 148.878906 638.324219 148.132812 629 155.21875 622.519531 C 162.34375 616.003906 172.640625 617.414062 178.167969 618.167969 L 176.503906 630.347656 C 171.613281 629.679688 166.171875 629.171875 163.527344 631.585938 C 161.054688 633.847656 161.203125 638.101562 161.746094 644.835938 C 162.289062 651.640625 162.90625 659.351562 158.582031 665.972656 C 154.382812 672.390625 147.566406 674.738281 141.554688 676.8125 C 137.355469 678.261719 133.390625 679.625 131.128906 682.089844 C 127.996094 685.492188 127.671875 691.410156 127.332031 697.671875 C 126.886719 705.808594 126.386719 715.035156 119.398438 721.597656 Z M 119.398438 721.597656 " fill-opacity="1" fill-rule="nonzero"/></g><path fill="#9d0191" d="M 613.605469 390.714844 C 610.078125 398.054688 607.40625 405.804688 605.664062 413.753906 C 615.457031 412.976562 625.160156 411.027344 634.492188 407.960938 C 627.253906 403.132812 620.023438 398.292969 612.800781 393.445312 " fill-opacity="1" fill-rule="nonzero"/><path fill="#9d0191" d="M 244.007812 428.699219 C 236.050781 434.542969 228.09375 440.386719 220.140625 446.226562 C 230.121094 449.640625 239.566406 454.617188 248.023438 460.917969 C 246.738281 448.929688 244.921875 437 242.582031 425.171875 " fill-opacity="1" fill-rule="nonzero"/><path fill="#9d0191" d="M 586.785156 190.035156 L 564.445312 204.683594 L 592.371094 214.992188 Z M 586.785156 190.035156 " fill-opacity="1" fill-rule="nonzero"/><path fill="#9d0191" d="M 157.761719 140.71875 L 152.546875 176.78125 L 177.679688 170.503906 Z M 157.761719 140.71875 " fill-opacity="1" fill-rule="nonzero"/><path fill="#9d0191" d="M 718.035156 557.980469 L 713.84375 585.859375 L 737.394531 571.921875 Z M 718.035156 557.980469 " fill-opacity="1" fill-rule="nonzero"/><path fill="#9d0191" d="M 775.628906 254.972656 L 797.621094 275.484375 L 775.628906 285.945312 Z M 775.628906 254.972656 " fill-opacity="1" fill-rule="nonzero"/><path fill="#9d0191" d="M 444.410156 465.382812 L 410.789062 479.507812 L 440.105469 496.25 Z M 444.410156 465.382812 " fill-opacity="1" fill-rule="nonzero"/></svg>